<svg xmlns="http://www.w3.org/2000/svg" width="122" height="29" fill="none"><rect width="28.5" height="28.5" x=".75" y=".25" fill="url(#a)" rx="8.75"/><rect width="28.5" height="28.5" x=".75" y=".25" stroke="#E24827" stroke-width=".5" rx="8.75"/><path fill="#fff" fill-rule="evenodd" d="M16.852 7.13a.531.531 0 0 1 .255.603l-1.411 5.173h5.148a.531.531 0 0 1 .388.894l-7.438 7.969a.532.532 0 0 1-.9-.503l1.41-5.172H9.156a.531.531 0 0 1-.388-.894l7.438-7.969a.532.532 0 0 1 .646-.101z" clip-rule="evenodd"/><path fill="#292929" d="M43.143 20.766c-2.888 0-5.016-2.185-5.016-5.016s2.128-5.016 5.016-5.016c1.862 0 3.477.988 4.256 2.451L45.29 14.42c-.38-.779-1.197-1.273-2.166-1.273-1.463 0-2.546 1.083-2.546 2.603 0 1.501 1.083 2.584 2.546 2.584.988 0 1.805-.475 2.185-1.254l2.128 1.216c-.817 1.482-2.432 2.47-4.294 2.47zm9.764 0c-2.793 0-5.016-2.185-5.016-5.016s2.223-5.016 5.016-5.016 5.035 2.185 5.035 5.016-2.242 5.016-5.035 5.016zm0-2.394c1.463 0 2.584-1.083 2.584-2.622s-1.121-2.622-2.584-2.622c-1.444 0-2.565 1.083-2.565 2.622s1.12 2.622 2.565 2.622zm17.066-7.638c2.166 0 3.591 1.539 3.591 3.914V20.5h-2.45v-5.681c0-1.121-.57-1.805-1.597-1.805-1.083 0-1.767.722-1.767 2.147V20.5H65.3v-5.681c0-1.121-.57-1.805-1.597-1.805-1.045 0-1.786.722-1.786 2.147V20.5h-2.45V11h2.45v1.007c.532-.798 1.425-1.273 2.641-1.273 1.178 0 2.052.494 2.584 1.368.59-.855 1.54-1.368 2.831-1.368zm11.002 0c2.546 0 4.636 2.185 4.636 5.016s-2.09 5.016-4.636 5.016c-1.387 0-2.394-.513-3.078-1.387V24.3h-2.451V11h2.45v1.121c.685-.874 1.692-1.387 3.079-1.387zm-.456 7.695c1.52 0 2.64-1.083 2.64-2.679 0-1.596-1.12-2.679-2.64-2.679-1.501 0-2.622 1.083-2.622 2.679 0 1.596 1.12 2.679 2.622 2.679zm11.142 2.337c-2.793 0-5.016-2.185-5.016-5.016s2.223-5.016 5.016-5.016 5.035 2.185 5.035 5.016-2.242 5.016-5.035 5.016zm0-2.394c1.463 0 2.584-1.083 2.584-2.622s-1.12-2.622-2.584-2.622c-1.444 0-2.565 1.083-2.565 2.622s1.121 2.622 2.565 2.622zm8.617-4.674c0 1.406 4.902.532 4.902 4.028 0 2.052-1.786 3.04-3.819 3.04-1.9 0-3.306-.798-3.99-2.261l2.128-1.197c.266.779.912 1.235 1.862 1.235.779 0 1.311-.266 1.311-.817 0-1.387-4.903-.627-4.903-3.971 0-1.938 1.653-3.021 3.611-3.021 1.539 0 2.869.703 3.61 2.014l-2.09 1.14c-.285-.608-.817-.969-1.52-.969-.608 0-1.102.266-1.102.779zm7.494-3.838a1.517 1.517 0 0 1-1.501-1.501c0-.817.684-1.52 1.501-1.52.836 0 1.52.703 1.52 1.52 0 .817-.684 1.501-1.52 1.501zm-1.216 10.64V11h2.451v9.5h-2.451zm9.016.266c-2.793 0-5.016-2.185-5.016-5.016s2.223-5.016 5.016-5.016 5.035 2.185 5.035 5.016-2.242 5.016-5.035 5.016zm0-2.394c1.463 0 2.584-1.083 2.584-2.622s-1.121-2.622-2.584-2.622c-1.444 0-2.565 1.083-2.565 2.622s1.121 2.622 2.565 2.622z"/><defs><linearGradient id="a" x1="15" x2="15" y1="0" y2="29" gradientUnits="userSpaceOnUse"><stop stop-color="#FF8267"/><stop offset=".71" stop-color="#F15836"/><stop offset="1" stop-color="#F33004"/></linearGradient></defs></svg>